<?xml version="1.0" standalone="no"?><!DOCTYPE svg PUBLIC "-//W3C//DTD SVG 1.1//EN" "http://www.w3.org/Graphics/SVG/1.1/DTD/svg11.dtd"><svg class="icon" width="200px" height="200.00px" viewBox="0 0 1024 1024" version="1.1" xmlns="http://www.w3.org/2000/svg"><path d="M58.879652 282.582444l454.134039-281.575033 17.731425 28.597861-454.134039 281.575034-17.731425-28.597862Z" fill="#ffffff" /><path d="M63.455319 749.156677l0-471.08307 33.648791 0 0 471.08307-33.648791 0Z" fill="#ffffff" /><path d="M915.442701 749.156677l0-471.08307 33.648791 0 0 471.08307-33.648791 0Z" fill="#ffffff" /><path d="M489.44901 1017.001052l0-471.083071 33.648791 0 0 471.083071-33.648791 0Z" fill="#ffffff" /><path d="M505.17738 568.971826l-419.201437-262.556924 17.861015-28.517105 419.201437 262.556925-17.861015 28.517104Z" fill="#ffffff" /><path d="M938.80513 303.555749l-429.467595 268.98689-17.861015-28.517105 429.467594-268.98689 17.861016 28.517105Z" fill="#ffffff" /><path d="M935.925599 310.199334l-454.134038-281.575034 17.731425-28.597861 454.134039 281.575034-17.731426 28.597861Z" fill="#ffffff" /><path d="M954.64591 740.344063l-452.85162 283.632922-17.861015-28.517104 452.85162-283.632923 17.861015 28.517105Z" fill="#ffffff" /><path d="M77.276034 711.316806l452.85162 283.632922-17.861015 28.517105-452.85162-283.632922 17.861015-28.517105Z" fill="#ffffff" /><path d="M427.535235 226.927445m-33.648791 0a33.648791 33.648791 0 1 0 67.297582 0 33.648791 33.648791 0 1 0-67.297582 0Z" fill="#ffffff" /><path d="M294.286024 648.883281m-33.648791 0a33.648791 33.648791 0 1 0 67.297581 0 33.648791 33.648791 0 1 0-67.297581 0Z" fill="#ffffff" /><path d="M833.339651 464.487907m-33.64879 0a33.648791 33.648791 0 1 0 67.297581 0 33.648791 33.648791 0 1 0-67.297581 0Z" fill="#ffffff" /><path d="M734.412207 634.077813m-33.648791 0a33.648791 33.648791 0 1 0 67.297581 0 33.648791 33.648791 0 1 0-67.297581 0Z" fill="#ffffff" /><path d="M633.465834 801.648791m-33.64879 0a33.648791 33.648791 0 1 0 67.297581 0 33.648791 33.648791 0 1 0-67.297581 0Z" fill="#ffffff" /><path d="M577.608842 327.200841m-33.648791 0a33.648791 33.648791 0 1 0 67.297582 0 33.648791 33.648791 0 1 0-67.297582 0Z" fill="#ffffff" /></svg>